<svg xmlns="http://www.w3.org/2000/svg" width="49.672" height="72.167" viewBox="0 0 49.672 72.167"><defs><style>.a{fill:#ec257a;}.b{fill:#fff;}</style></defs><path class="a" d="M173.754,69.979l-4.7,4.7-1.606-1.606a1.444,1.444,0,0,0-2.042,2.042l2.628,2.628a1.444,1.444,0,0,0,2.041,0h0l5.723-5.723a1.444,1.444,0,0,0-2.042-2.042Z" transform="translate(-157.922 -44.162)"/><path class="a" d="M173.754,97.425l-4.7,4.7-1.606-1.607a1.444,1.444,0,0,0-2.042,2.042l2.628,2.628a1.442,1.442,0,0,0,2.041,0h0l5.723-5.722a1.444,1.444,0,0,0-2.042-2.042Z" transform="translate(-157.922 -51.072)"/><path class="b" d="M205.219,110.276H155.547V45.514h49.672Zm-46.6-3.072h43.526V48.586H158.62Z" transform="translate(-155.547 -38.109)"/><path class="b" d="M195.048,35.617H174.107l-2.667,8.941h26.232Zm-10.492,6.469a2,2,0,1,1,2-2A2,2,0,0,1,184.556,42.086Z" transform="translate(-159.548 -35.617)"/><rect class="b" width="19.423" height="2.661" transform="translate(21.857 25.544)"/><rect class="b" width="12.257" height="2.661" transform="translate(21.857 31.194)"/><rect class="b" width="19.423" height="2.661" transform="translate(21.857 44.599)"/><rect class="b" width="12.257" height="2.661" transform="translate(21.857 50.249)"/></svg>