<svg xmlns="http://www.w3.org/2000/svg" width="53.177" height="63.492" viewBox="0 0 53.177 63.492"><defs><style>.a{fill:#fff;}.b{fill:#ec257a;}</style></defs><path class="a" d="M164.79,122.611h-2.765a.724.724,0,1,1,0-1.449h2.184l4.618-4.416A8.9,8.9,0,0,1,175,114.27h15.173a.822.822,0,0,1,.821.821,7.866,7.866,0,0,1-4.853,7.1,6.268,6.268,0,0,1-.66.25l-.108.034h-9.106a.724.724,0,1,1,0-1.448h8.877c.118-.04.262-.094.422-.165a6.424,6.424,0,0,0,3.931-5.146H175a7.46,7.46,0,0,0-5.173,2.075Z" transform="translate(-161.3 -72.505)"/><path class="a" d="M173.487,134.1H162.424a.724.724,0,1,1,0-1.448h10.893c4.644-1.11,9.339-2.473,13.955-4.053,3.7-1.265,7.357-2.68,11.187-4.323l14.619-11.732a.391.391,0,0,0,.11-.261c-.046-.331-1.85-1.246-3.751-1.348a9.827,9.827,0,0,0-5.267,1.62,8.546,8.546,0,0,0-1.442,1.084l-.1.078-10.356,6.725h-.763l-1.674.036c-1.29.027-2.674.056-3.738.085h-.218a.724.724,0,0,1,0-1.448h.2c1.047-.028,2.433-.058,3.728-.085l2.039-.036,9.944-6.458a9.994,9.994,0,0,1,1.631-1.219,11.229,11.229,0,0,1,6.1-1.828c1.751.094,5.051,1.011,5.12,2.8a1.88,1.88,0,0,1-.625,1.368l-14.8,11.876-.091.039c-3.9,1.675-7.62,3.115-11.38,4.4-4.688,1.6-9.455,2.988-14.172,4.111Z" transform="translate(-161.459 -70.604)"/><path class="a" d="M211.259,118.681l-1.222-.777,5.311-8.353A8.005,8.005,0,0,1,223,105.913l1.654.195a1.015,1.015,0,0,1,.823,1.541l-1.926,3.135-1.234-.759,1.567-2.549-1.053-.124a6.552,6.552,0,0,0-6.257,2.977Z" transform="translate(-180.622 -69.171)"/><path class="a" d="M202.024,52.8a.724.724,0,0,1-.724-.724V45.794a.724.724,0,1,1,1.448,0v6.277A.724.724,0,0,1,202.024,52.8Z" transform="translate(-177.159 -45.07)"/><path class="a" d="M191.624,57.6a.725.725,0,0,1-.725-.724V50.594a.725.725,0,0,1,1.449,0v6.277A.724.724,0,0,1,191.624,57.6Z" transform="translate(-173.035 -46.973)"/><path class="a" d="M213.224,57.6a.724.724,0,0,1-.724-.724V50.594a.724.724,0,1,1,1.448,0v6.277A.724.724,0,0,1,213.224,57.6Z" transform="translate(-181.599 -46.973)"/><path class="a" d="M195.24,66.15a11.66,11.66,0,1,1-11.66,11.66,11.66,11.66,0,0,1,11.66-11.66Zm8.619,11.66a8.618,8.618,0,1,0-8.619,8.619h0A8.618,8.618,0,0,0,203.859,77.81Z" transform="translate(-170.133 -53.427)"/><circle class="b" cx="8.618" cy="8.618" r="8.618" transform="translate(16.489 15.764)"/><path class="b" d="M195.042,89.574A11.962,11.962,0,1,1,207,77.612,11.976,11.976,0,0,1,195.042,89.574Zm0-23.321A11.359,11.359,0,1,0,206.4,77.612,11.371,11.371,0,0,0,195.042,66.254Z" transform="translate(-169.935 -53.229)"/><g transform="translate(22.515 19.164)"><path class="a" d="M200.55,87.261V85.977a3.7,3.7,0,0,1-1.945-.559l.305-.852a3.387,3.387,0,0,0,1.832.546c.9,0,1.512-.521,1.512-1.246,0-.7-.5-1.132-1.437-1.513-1.3-.508-2.1-1.094-2.1-2.2a2.084,2.084,0,0,1,1.919-2.047V76.823h.789v1.233a3.391,3.391,0,0,1,1.652.445l-.318.839a3.071,3.071,0,0,0-1.6-.432c-.979,0-1.348.585-1.348,1.094,0,.661.47.992,1.576,1.449,1.31.534,1.971,1.2,1.971,2.327a2.212,2.212,0,0,1-2.009,2.162v1.322Z" transform="translate(-198.605 -76.823)"/></g></svg>