<svg xmlns="http://www.w3.org/2000/svg" width="70.142" height="60" viewBox="0 0 70.142 60"><defs><style>.a{fill:#fff;}.b,.c,.d{fill:none;stroke-miterlimit:10;}.b,.d{stroke:#fff;}.c{stroke:#ec257a;stroke-width:1.3px;}.d{stroke-width:0.422px;}</style></defs><g transform="translate(0 0)"><g transform="translate(0)"><path class="a" d="M69.2,28.072,13.967,71.409,3.751,58.388,58.985,15.052,69.2,28.072m1.243.15L59.135,13.809,2.508,58.238,13.817,72.652,70.444,28.222Z" transform="translate(-2.508 -13.809)"/><line class="b" x1="5.827" y1="7.427" transform="translate(59.779 8.796)"/><line class="b" x1="3.278" y1="4.177" transform="translate(59.752 14.066)"/><line class="b" x1="3.278" y1="4.177" transform="translate(58.464 15.077)"/><line class="b" x1="3.278" y1="4.177" transform="translate(61.04 13.056)"/><line class="b" x1="3.278" y1="4.177" transform="translate(57.176 16.087)"/><line class="b" x1="4.792" y1="5.989" transform="translate(54.402 15.264)"/><line class="b" x1="3.278" y1="4.177" transform="translate(54.6 18.108)"/><line class="b" x1="3.278" y1="4.177" transform="translate(53.312 19.119)"/><line class="b" x1="3.278" y1="4.177" transform="translate(52.024 20.13)"/><line class="b" x1="3.278" y1="4.177" transform="translate(50.736 21.14)"/><line class="b" x1="3.278" y1="4.177" transform="translate(46.872 24.172)"/><line class="b" x1="3.278" y1="4.177" transform="translate(45.584 25.182)"/><line class="b" x1="3.278" y1="4.177" transform="translate(48.16 23.161)"/><line class="b" x1="3.278" y1="4.177" transform="translate(44.296 26.193)"/><line class="b" x1="4.792" y1="5.989" transform="translate(41.522 25.37)"/><line class="b" x1="3.278" y1="4.177" transform="translate(41.72 28.214)"/><line class="b" x1="3.278" y1="4.177" transform="translate(40.431 29.225)"/><line class="b" x1="3.278" y1="4.177" transform="translate(39.143 30.235)"/><line class="b" x1="3.278" y1="4.177" transform="translate(37.855 31.246)"/><line class="b" x1="3.278" y1="4.177" transform="translate(33.991 34.278)"/><line class="b" x1="3.278" y1="4.177" transform="translate(32.703 35.288)"/><line class="b" x1="3.278" y1="4.177" transform="translate(35.279 33.267)"/><line class="b" x1="3.278" y1="4.177" transform="translate(31.415 36.299)"/><line class="b" x1="4.792" y1="5.989" transform="translate(28.641 35.476)"/><line class="b" x1="3.278" y1="4.177" transform="translate(28.839 38.32)"/><line class="b" x1="3.278" y1="4.177" transform="translate(27.551 39.331)"/><line class="b" x1="3.278" y1="4.177" transform="translate(26.263 40.341)"/><line class="b" x1="3.278" y1="4.177" transform="translate(24.975 41.352)"/><line class="b" x1="3.278" y1="4.177" transform="translate(21.111 44.383)"/><line class="b" x1="3.278" y1="4.177" transform="translate(19.823 45.394)"/><line class="b" x1="3.278" y1="4.177" transform="translate(22.399 43.373)"/><line class="b" x1="3.278" y1="4.177" transform="translate(18.535 46.405)"/><line class="b" x1="4.792" y1="5.989" transform="translate(15.761 45.581)"/><line class="b" x1="3.278" y1="4.177" transform="translate(15.959 48.426)"/><line class="b" x1="3.278" y1="4.177" transform="translate(14.671 49.436)"/><line class="b" x1="3.278" y1="4.177" transform="translate(13.383 50.447)"/><line class="b" x1="3.278" y1="4.177" transform="translate(12.095 51.458)"/><line class="b" x1="5.827" y1="7.427" transform="translate(46.899 18.902)"/><line class="b" x1="5.827" y1="7.427" transform="translate(34.018 29.007)"/><line class="b" x1="5.827" y1="7.427" transform="translate(21.138 39.113)"/><line class="b" x1="5.827" y1="7.427" transform="translate(8.257 49.219)"/><line class="c" x1="51.521" y2="40.423" transform="translate(4.616 4.154)"/></g></g><g transform="translate(66.822 16.187)"><line class="d" x2="0.537" y2="37.108" transform="translate(1.391 1.78)"/><path class="a" d="M51.616,26.189a8.914,8.914,0,0,1-1.365,2.542l1.394-.528,1.411.486A8.916,8.916,0,0,1,51.616,26.189Z" transform="translate(-50.251 -26.189)"/><g transform="translate(0.514 38.127)"><path class="a" d="M52.058,55.157a8.882,8.882,0,0,0-1.44-2.5l1.411.486,1.4-.528A8.883,8.883,0,0,0,52.058,55.157Z" transform="translate(-50.618 -52.615)"/></g></g><g transform="translate(13.025 56.659)"><line class="d" x1="51.602" y2="0.552" transform="translate(1.78 1.395)"/><g transform="translate(52.626)"><path class="a" d="M51.95,55.667a8.926,8.926,0,0,1-2.536-1.376l.522,1.4L49.443,57.1A8.911,8.911,0,0,1,51.95,55.667Z" transform="translate(-49.414 -54.291)"/></g><g transform="translate(0 0.536)"><path class="a" d="M11.814,56.1a8.941,8.941,0,0,0,2.505-1.43l-.493,1.408.523,1.4A8.926,8.926,0,0,0,11.814,56.1Z" transform="translate(-11.814 -54.674)"/></g></g></svg>