<svg xmlns="http://www.w3.org/2000/svg" width="97.953" height="62.792" viewBox="0 0 97.953 62.792"><defs><style>.a,.b{fill:#fff;}.a,.c{stroke:#ec257a;stroke-miterlimit:10;}.a{stroke-width:5.03px;}.c,.e{fill:none;}.c{stroke-width:3px;}.d{stroke:none;}</style></defs><g class="a" transform="translate(2.759)"><rect class="d" width="63.158" height="41.502"/><rect class="e" x="2.515" y="2.515" width="58.128" height="36.472"/></g><path class="b" d="M176.8,125.536v4.187h14.374a11.5,11.5,0,0,1,3.5-4.187Zm93.67,0V98.922L259.994,88.19H245.8v37.346H208.339a11.5,11.5,0,0,1,3.5,4.187h38.918a11.486,11.486,0,0,1,20.63,0h3.369v-4.187Zm-4.957-20.71H249.631V92.618h8.5l7.379,7.941Z" transform="translate(-176.8 -81.003)"/><circle class="c" cx="7.501" cy="7.501" r="7.501" transform="translate(17.204 46.29)"/><circle class="c" cx="7.501" cy="7.501" r="7.501" transform="translate(76.763 46.29)"/></svg>