<svg xmlns="http://www.w3.org/2000/svg" width="60.608" height="75.54" viewBox="0 0 60.608 75.54"><defs><style>.a{fill:none;stroke:#fff;stroke-miterlimit:10;stroke-width:8.218px;}.b{fill:#fff;}.c{fill:#ec257a;}</style></defs><circle class="a" cx="17.864" cy="17.864" r="17.864" transform="translate(12.44 14.055)"/><rect class="b" width="10.132" height="12.356" transform="translate(24.982)"/><rect class="b" width="10.132" height="12.356" transform="translate(0 20.569) rotate(-60)"/><rect class="b" width="10.132" height="12.356" transform="translate(5.322 52.488) rotate(-120)"/><rect class="b" width="10.132" height="12.356" transform="translate(35.626 63.839) rotate(-180)"/><rect class="b" width="10.132" height="12.356" transform="translate(60.608 43.271) rotate(120)"/><rect class="b" width="10.132" height="12.356" transform="translate(55.286 11.351) rotate(60)"/><path class="c" d="M152.97,136.042a7.82,7.82,0,0,0-6.053-4.069l3.828,7.1-2.683,4.349-5.111-.149-3.826-7.1a7.825,7.825,0,0,0,7.742,11.365l14.995,31.4a4.624,4.624,0,0,0,6.418,2.19h0a4.624,4.624,0,0,0,1.712-6.546l-17.824-29.908A7.829,7.829,0,0,0,152.97,136.042Zm13.884,42.441a2.353,2.353,0,1,1,.955-3.187A2.353,2.353,0,0,1,166.854,178.483Z" transform="translate(-115.617 -106.145)"/></svg>