<svg xmlns="http://www.w3.org/2000/svg" width="281.738" height="381.075" viewBox="0 0 281.738 381.075"><defs><style>.a{fill:#ec257a;}.b{fill:#414141;}.c{fill:#fbdbdb;}.d{fill:none;stroke:#414141;stroke-miterlimit:10;stroke-width:4px;}</style></defs><g transform="translate(-423.781 -435.882)"><g transform="translate(423.781 437.883)"><path class="a" d="M473.279,575.137c.241-.074.486-.137.732-.187a90.842,90.842,0,0,1,23.135-3.09h28.067V547.521a107.516,107.516,0,0,1-80.494-73.9h-2.653a111.994,111.994,0,0,1-8.8,59.275,51.9,51.9,0,0,0,6.588,59.3,90.938,90.938,0,0,1,33.418-17.058Z" transform="translate(-411.701 -298.042)"/><path class="b" d="M432.478,583.424h35.083V555.361a14,14,0,0,1,7.016-12.081V497.565a77.254,77.254,0,0,0-49.115,71.827v7.016a7.014,7.014,0,0,0,7.016,7.016Z" transform="translate(-417.204 -204.35)"/><path class="b" d="M462.38,577.245H431.614V551.2a13.147,13.147,0,0,0-6.152-11.212V497.565c25.941,10.737,43.028,37.182,43.071,66.658v6.511a6.337,6.337,0,0,1-6.152,6.511Z" transform="translate(-189.023 -198.171)"/><path class="c" d="M627.208,549.6c.585-2.7,1.037-5.493,1.361-8.293a86.214,86.214,0,0,0,.516-9.153,69.792,69.792,0,0,0-.442-8.234c-.221-2.574-.609-4.913-1-7.252-.344-1.626-.8-3.508-1.317-5.4a97.639,97.639,0,0,0-14.469-23.066c-62.365,4.063-94.732-21.538-107.884-36.2-7.856,12.051-25.931,30.883-65.121,41.6l-3.07,16.719a6.8,6.8,0,0,1-.477,1.268c-.457,1.754-.914,3.493-1.292,5.3-.349,2.117-.747,4.451-.938,6.785a70.68,70.68,0,0,0-.467,8.475,87.774,87.774,0,0,0,.521,9.227,80.347,80.347,0,0,0,1.351,7.929,93.6,93.6,0,0,0,76.6,70.265,111.345,111.345,0,0,0,39.535,0A93.857,93.857,0,0,0,627.208,549.6Z" transform="translate(-389.255 -382.609)"/><path class="c" d="M444.029,525.113v49.12h84.2v-49.12H514.2v14.036a7.018,7.018,0,0,1-14.036,0V489.155a113.163,113.163,0,0,1-28.063,0v49.994a7.018,7.018,0,0,1-14.036,0V525.118Z" transform="translate(-344.552 -237.258)"/><path class="a" d="M429.744,552.6h1.415c.093-.589.137-1.125.236-1.719.55-2.746,1.194-5.237,1.852-7.708.044-.187.162-.339.216-.516l3.415-18.61h0a6.949,6.949,0,0,1,5.228-6.308c55.757-13.746,65.018-43.927,65.106-44.231a7.015,7.015,0,0,1,12.837-1.548c1.061,1.818,27.262,45.091,105.6,38.6a5.167,5.167,0,0,1,.609.064,7.112,7.112,0,0,1,1.331.142,7.2,7.2,0,0,1,1.385.4,8.317,8.317,0,0,1,2.221,1.528c.128.133.3.2.427.339a120.581,120.581,0,0,1,19.352,30.834c.668,2.412,1.194,4.6,1.646,6.77.118.707.167,1.307.275,1.985h1.4v-3.513a107.717,107.717,0,0,0-46.064-87.721c-44.379-25.744-91.033-24.137-132.424,0a107.7,107.7,0,0,0-46.069,87.721Z" transform="translate(-400.449 -419.122)"/><path class="b" d="M490.788,583.494V513.332a14.13,14.13,0,0,1,.349-3.051,76.487,76.487,0,0,0-21.4-12.734v45.794a14,14,0,0,1,7.021,12.081V583.49Z" transform="translate(-243.962 -204.42)"/><path class="b" d="M452.349,545.59V496.475a76.4,76.4,0,0,0-14.031,1.341V545.59Z" transform="translate(-366.903 -208.615)"/><path class="a" d="M550.287,532.9a111.98,111.98,0,0,1-8.8-59.275h-2.614a107.811,107.811,0,0,1-80.563,73.9V571.86H486.38a90.735,90.735,0,0,1,57.339,20.31,51.887,51.887,0,0,0,6.569-59.275Z" transform="translate(-288.663 -298.042)"/><path class="b" d="M591.255,509.329H436.89v28.063H591.255Z" transform="translate(-372.487 -158.317)"/><path class="b" d="M464.025,496.474v49.12h14.031V497.771A77.7,77.7,0,0,0,464.025,496.474Z" transform="translate(-266.309 -208.619)"/><path class="d" d="M430.359,591.948c-20.635-78.455,33.261-155.79,126.41-154.036,76.288,1.44,138.162,71.164,138.162,147.473,0,51.876-39.908,75.881-101.7,57.693" transform="translate(-415.194 -437.883)"/><rect class="b" width="28.758" height="37.489" rx="14" transform="translate(0 141.596) rotate(-12.038)"/><rect class="b" width="28.758" height="37.489" rx="14" transform="translate(143.878 198.307) rotate(-57.711)"/></g></g></svg>